<?xml version="1.0" encoding="UTF-8" standalone="no"?>
<!-- Created with Inkscape (http://www.inkscape.org/) -->

<svg
   xmlns:dc="http://purl.org/dc/elements/1.1/"
   xmlns:cc="http://creativecommons.org/ns#"
   xmlns:rdf="http://www.w3.org/1999/02/22-rdf-syntax-ns#"
   xmlns:svg="http://www.w3.org/2000/svg"
   xmlns="http://www.w3.org/2000/svg"
   xmlns:sodipodi="http://sodipodi.sourceforge.net/DTD/sodipodi-0.dtd"
   xmlns:inkscape="http://www.inkscape.org/namespaces/inkscape"
   width="200"
   height="200"
   viewBox="0 0 52.916668 52.916666"
   version="1.1"
   id="svg8"
   inkscape:version="0.92.1 r15371"
   sodipodi:docname="progress.svg">
  <defs
     id="defs2">
    <inkscape:path-effect
       effect="envelope"
       id="path-effect4658"
       is_visible="true"
       yy="true"
       xx="true"
       bendpath1="m -199.08406,108.42369 h 7.0057"
       bendpath2="m -192.07836,108.42369 v 6.75242"
       bendpath3="m -199.08406,115.17611 h 7.0057"
       bendpath4="m -199.08406,108.42369 v 6.75242" />
    <inkscape:path-effect
       effect="bend_path"
       id="path-effect4656"
       is_visible="true"
       bendpath="m -192.00142,114.60623 c 2.12577,-0.53066 4.48261,0.85111 7.0057,0"
       prop_scale="1"
       scale_y_rel="false"
       vertical="false"
       bendpath-nodetypes="cc" />
    <inkscape:path-effect
       effect="bounding_box"
       id="path-effect4654"
       is_visible="true"
       linkedpath=""
       visualbounds="false" />
  </defs>
  <sodipodi:namedview
     id="base"
     pagecolor="#ffffff"
     bordercolor="#666666"
     borderopacity="1.0"
     inkscape:pageopacity="0.0"
     inkscape:pageshadow="2"
     inkscape:zoom="0.5"
     inkscape:cx="616.35575"
     inkscape:cy="150.46772"
     inkscape:document-units="px"
     inkscape:current-layer="layer1"
     showgrid="false"
     fit-margin-top="0"
     fit-margin-left="0"
     fit-margin-right="0"
     fit-margin-bottom="0"
     inkscape:window-width="1920"
     inkscape:window-height="1016"
     inkscape:window-x="0"
     inkscape:window-y="27"
     inkscape:window-maximized="1"
     showguides="false"
     inkscape:object-nodes="true"
     units="px"
     inkscape:snap-page="true" />
  <metadata
     id="metadata5">
    <rdf:RDF>
      <cc:Work
         rdf:about="">
        <dc:format>image/svg+xml</dc:format>
        <dc:type
           rdf:resource="http://purl.org/dc/dcmitype/StillImage" />
        <dc:title></dc:title>
      </cc:Work>
    </rdf:RDF>
  </metadata>
  <g
     inkscape:label="Layer 1"
     inkscape:groupmode="layer"
     id="layer1"
     transform="translate(98.048812,-95.14345)">
    <g
       style="stroke-width:0.5"
       id="g5375"
       transform="matrix(2,0,0,2,-98.048812,95.143449)">
      <rect
         ry="1.984375"
         rx="1.984375"
         style="opacity:1;fill:#222222;fill-opacity:1;fill-rule:nonzero;stroke:none;stroke-width:0.25;stroke-linecap:butt;stroke-linejoin:round;stroke-miterlimit:4;stroke-dasharray:none;stroke-dashoffset:0;stroke-opacity:0.90944878;paint-order:normal"
         id="rect5363"
         width="26.458334"
         height="26.458334"
         x="0"
         y="-1.110223e-16" />
      <rect
         ry="1.3229166"
         rx="1.3229166"
         y="1.322917"
         x="1.322917"
         height="23.8125"
         width="23.8125"
         id="rect5365"
         style="opacity:1;fill:#9c27b0;fill-opacity:1;fill-rule:nonzero;stroke:none;stroke-width:0.25;stroke-linecap:butt;stroke-linejoin:round;stroke-miterlimit:4;stroke-dasharray:none;stroke-dashoffset:0;stroke-opacity:0.90944878;paint-order:normal" />
      <svg x="3.3" y="2" width="19.9" height="15" viewBox="0 0 24 24" preserveAspectRatio="xMidYMid meet">
  <path d="M20.288 9.463a4.856 4.856 0 0 0-4.336-2.3 4.586 4.586 0 0 0-3.343 1.767c.071.116.148.226.212.347l.879 1.652.134-.254a2.71 2.71 0 0 1 2.206-1.519 2.845 2.845 0 1 1 0 5.686 2.708 2.708 0 0 1-2.205-1.518L13.131 12l-1.193-2.26a4.709 4.709 0 0 0-3.89-2.581 4.845 4.845 0 1 0 0 9.682 4.586 4.586 0 0 0 3.343-1.767c-.071-.116-.148-.226-.212-.347l-.879-1.656-.134.254a2.71 2.71 0 0 1-2.206 1.519 2.855 2.855 0 0 1-2.559-1.369 2.825 2.825 0 0 1 0-2.946 2.862 2.862 0 0 1 2.442-1.374h.121a2.708 2.708 0 0 1 2.205 1.518l.7 1.327 1.193 2.26a4.709 4.709 0 0 0 3.89 2.581h.209a4.846 4.846 0 0 0 4.127-7.378z"/>
      </svg>
      <path
         inkscape:connector-curvature="0"
         id="path5369"
         d="m 0.72760492,18.520836 v 4.167188 c 0,1.539081 1.23904398,2.778124 2.77812498,2.778124 H 22.952604 c 1.539081,0 2.778125,-1.239043 2.778125,-2.778124 v -4.167188 z"
         style="opacity:1;fill:#222222;fill-opacity:1;fill-rule:nonzero;stroke:none;stroke-width:0.24999997;stroke-linecap:butt;stroke-linejoin:round;stroke-miterlimit:4;stroke-dasharray:none;stroke-dashoffset:0;stroke-opacity:0.90944878;paint-order:normal" />
      <text x="13.229" y="22.489" dominant-baseline="central" text-anchor="middle" font-family="Arial, Helvetica, sans-serif" font-weight="700" font-size="4.3" fill="#eeeeee" textLength="23" lengthAdjust="spacingAndGlyphs">MAXIMAL</text>
    </g>
    <text
       xml:space="preserve"
       style="font-style:normal;font-variant:normal;font-weight:500;font-stretch:normal;font-size:8.46666622px;line-height:4.23333311px;font-family:Montserrat;-inkscape-font-specification:'Montserrat Medium';text-align:center;text-anchor:middle;opacity:1;fill:#eeeeee;fill-opacity:1;fill-rule:nonzero;stroke:none;stroke-width:4.23333311;stroke-linecap:butt;stroke-linejoin:round;stroke-miterlimit:4;stroke-dasharray:none;stroke-dashoffset:0;stroke-opacity:1;paint-order:stroke fill markers"
       x="-355.53735"
       y="24.113144"
       id="text4627-36-3"><tspan
         sodipodi:role="line"
         id="tspan4625-0-6"
         x="-355.53735"
         y="24.113144"
         style="font-style:normal;font-variant:normal;font-weight:500;font-stretch:normal;font-size:8.46666622px;font-family:Montserrat;-inkscape-font-specification:'Montserrat Medium';text-align:center;text-anchor:middle;fill:#eeeeee;fill-opacity:1;stroke-width:4.23333311">ORD</tspan></text>
  </g>
</svg>
